<svg width="160" height="29" viewBox="0 0 160 29" fill="none" xmlns="http://www.w3.org/2000/svg">
<path fill-rule="evenodd" clip-rule="evenodd" d="M144.63 1.8931L152.298 27.4527H159.361L150.522 0.00976562L138.899 0.00976562L133.948 15.6711L140.497 15.6711L144.63 1.8931Z" fill="black"/>
<path d="M116.422 27.4527V0.00976562L122.513 0.00976562V21.4017L144.814 21.4017V27.4527L116.422 27.4527Z" fill="black"/>
<path d="M125.277 18.3205V0L131.369 0V12.2696L150.017 12.2696V18.3205L125.277 18.3205Z" fill="black"/>
<path d="M100.846 28.0984C97.1057 28.0984 94.2135 27.2778 92.1687 25.6366C90.1239 23.9685 89.1016 21.3722 89.1016 17.8476V0.00976562L95.7201 0.00976562V17.6862C95.7201 19.3005 96.1506 20.5247 97.0116 21.3587C97.8994 22.1928 99.2043 22.6098 100.926 22.6098C104.316 22.6098 106.011 21.0224 106.011 17.8476V0.00976562L112.63 0.00976562V17.6862C112.63 21.2645 111.607 23.9012 109.563 25.5962C107.518 27.2643 104.612 28.0984 100.846 28.0984Z" fill="black"/>
<path d="M86.0241 14.1751C86.0241 17.1616 85.3918 19.6368 84.1273 21.6009C82.8897 23.5649 81.1947 25.0312 79.0423 25.9998C76.8899 26.9684 74.4819 27.4527 71.8184 27.4527H61.1641L61.1641 0.00976562L71.8184 0.00976562C74.5088 0.00976562 76.9168 0.494051 79.0423 1.46262C81.1947 2.40429 82.8897 3.8437 84.1273 5.78084C85.3918 7.71799 86.0241 10.1663 86.0241 13.1258V14.1751ZM67.7019 22.1255H71.6166C73.177 22.1255 74.5223 21.843 75.6523 21.278C76.8092 20.6861 77.6971 19.8117 78.3159 18.6548C78.9347 17.4979 79.2441 16.0585 79.2441 14.3366V13.2873C79.2441 11.5116 78.9212 10.0453 78.2755 8.88835C77.6567 7.70454 76.7688 6.81668 75.6119 6.22477C74.4819 5.63287 73.1501 5.33691 71.6166 5.33691L67.7019 5.33691V22.1255Z" fill="black"/>
<path d="M37.3672 27.4527L37.3672 0.00976562L57.5458 0.00976562V5.49834L43.9858 5.49834V10.6237L56.5368 10.6237V16.0316L43.9858 16.0316V21.9641L57.5458 21.9641V27.4527L37.3672 27.4527Z" fill="black"/>
<path d="M0 27.4527L0 0.00976562L11.1386 0.00976562L18.1607 25.8384H15.4972L22.6 0.00976562L33.4157 0.00976562L33.4157 27.4527L26.9586 27.4527L27.1604 0.816908L27.8061 0.816908L20.4611 27.4527H12.6318L5.36751 0.816908L6.01322 0.816908L6.21501 27.4527H0Z" fill="black"/>
</svg>
