<svg preserveAspectRatio="none" width="100%" height="100%" overflow="visible" style="display: block;" viewBox="0 0 187.089 45.7205" fill="none" xmlns="http://www.w3.org/2000/svg">
<g id="Subtract">
<path fill-rule="evenodd" clip-rule="evenodd" d="M109.63 0.770347C109.987 0.770361 110.383 0.836528 110.709 1.09473C111.085 1.39344 111.253 1.85636 111.254 2.339C111.254 2.75371 111.114 3.14281 110.831 3.42424C110.577 3.67569 110.264 3.78759 109.979 3.839L109.958 3.84181L108.346 4.07861C107.568 4.19447 107.242 4.38953 107.146 4.49827C107.09 4.56259 106.951 4.8291 106.951 5.60103V33.0017C106.951 35.8552 107.592 37.9498 108.78 39.4067C109.965 40.86 111.649 41.6346 113.932 41.6346C116.259 41.6346 117.96 40.8573 119.143 39.4067C120.332 37.9498 120.972 35.8552 120.972 33.0017V6.78716C120.972 5.81096 120.815 5.17218 120.588 4.77431C120.379 4.40903 120.066 4.16602 119.565 4.07721L117.964 3.84181L117.944 3.839C117.659 3.78758 117.346 3.67562 117.093 3.42424C116.845 3.17793 116.707 2.84944 116.676 2.49314L116.67 2.339L116.678 2.15965C116.715 1.74347 116.886 1.35618 117.215 1.09473C117.54 0.836629 117.936 0.770347 118.294 0.770347H126.898C127.078 0.770354 127.267 0.785969 127.452 0.832701C127.627 0.876883 127.798 0.94888 127.953 1.0618C128.33 1.33618 128.522 1.78425 128.522 2.28015C128.522 2.74744 128.336 3.13621 128.047 3.40112C127.821 3.60829 127.546 3.72871 127.273 3.80327L127.14 3.8369L127.123 3.8397L125.749 4.07581C125.242 4.1648 124.928 4.40775 124.72 4.7652C124.496 5.1524 124.339 5.77435 124.339 6.7283V32.9429C124.339 36.7409 123.301 39.8652 121.184 42.2245C119.07 44.5789 116.289 45.7205 112.916 45.7205C110.668 45.7205 108.642 45.2036 106.853 44.147L106.845 44.1421L106.837 44.1365C105.094 43.0397 103.72 41.5312 102.733 39.6141L102.73 39.6071C101.74 37.6427 101.254 35.4131 101.254 32.9429V5.54218C101.254 4.75097 101.108 4.55073 101.094 4.53681L101.072 4.51509L101.053 4.49267C101.053 4.49267 101.034 4.47196 100.982 4.43872C100.928 4.4046 100.851 4.36422 100.744 4.32102C100.528 4.23392 100.229 4.14978 99.8343 4.07511L98.4696 3.8397L98.453 3.8369L98.3197 3.80327C98.0467 3.72873 97.7719 3.60825 97.5458 3.40112C97.2927 3.16923 97.1189 2.8424 97.0794 2.4511L97.0705 2.28015L97.0794 2.09659C97.1213 1.67481 97.31 1.30192 97.6398 1.0618C97.959 0.829436 98.3444 0.770356 98.6945 0.770347H109.63ZM112.915 44.863C112.736 44.863 112.559 44.8588 112.384 44.8518C112.428 44.8536 112.471 44.8568 112.515 44.8581L112.915 44.863ZM120.683 41.601C120.605 41.6879 120.526 41.7726 120.446 41.856C120.463 41.8377 120.482 41.8205 120.499 41.8021L120.683 41.601ZM108.255 39.9994C108.276 40.0255 108.298 40.0507 108.32 40.0765L108.255 39.9994ZM125.642 3.22807C124.288 3.4654 123.611 4.63215 123.611 6.7276V32.9422C123.611 33.1179 123.607 33.2918 123.603 33.4641C123.604 33.4022 123.607 33.3402 123.609 33.2778L123.611 32.9422V6.7276C123.611 4.63215 124.288 3.4654 125.642 3.22807ZM106.591 3.94339C106.586 3.94971 106.582 3.95652 106.577 3.96301C106.593 3.94111 106.609 3.92062 106.626 3.90066L106.591 3.94339ZM109.868 2.99127L108.255 3.22807C107.458 3.34665 106.92 3.56418 106.641 3.88034C106.636 3.88663 106.631 3.89416 106.626 3.90066L106.641 3.88034C106.92 3.56418 107.458 3.34665 108.255 3.22807L109.868 2.99127ZM117.819 2.92751C117.826 2.93005 117.833 2.93137 117.839 2.93382C117.829 2.9301 117.819 2.92655 117.809 2.92261L117.819 2.92751ZM110.525 2.3383C110.525 2.3618 110.524 2.38468 110.522 2.40696L110.523 2.40416L110.525 2.3383ZM127.793 2.27945C127.793 2.31029 127.791 2.34008 127.787 2.36913C127.788 2.36118 127.79 2.35341 127.791 2.34531L127.793 2.27945Z" fill="var(--fill-0, black)"/>
<path fill-rule="evenodd" clip-rule="evenodd" d="M171.602 0C171.917 0 172.22 0.0931402 172.493 0.285847C172.937 0.564126 173.152 1.07831 173.256 1.56305L182.698 39.1646C182.968 40.2379 183.246 40.8423 183.477 41.1235C183.688 41.3791 184.077 41.6236 184.75 41.7652L185.646 41.9432L185.654 41.9446C185.987 42.0154 186.329 42.1441 186.601 42.3951C186.905 42.6756 187.089 43.0815 187.089 43.5588C187.089 43.7885 187.045 44.031 186.931 44.2559C186.818 44.4799 186.661 44.6408 186.494 44.7512C186.182 44.9574 185.808 45.009 185.465 45.0091H175.247C175.216 45.0091 175.184 45.0081 175.152 45.007H166.26C166.228 45.0081 166.196 45.0091 166.165 45.0091L158.432 45.0089C158.399 45.0089 158.367 45.0078 158.334 45.0068L130.551 45.1867C130.201 45.1867 129.815 45.1283 129.496 44.8959C129.166 44.6559 128.978 44.2828 128.936 43.8611L128.927 43.6776L128.936 43.5059C128.975 43.1148 129.149 42.7877 129.402 42.5559C129.66 42.3193 129.982 42.1954 130.293 42.1243L130.309 42.1208L130.326 42.118L131.7 41.8805C132.09 41.8063 132.386 41.7224 132.6 41.636C132.707 41.5928 132.784 41.5524 132.838 41.5183C132.887 41.4869 132.909 41.4651 132.909 41.4651L132.929 41.4419L132.95 41.4209C132.965 41.406 133.11 41.2045 133.11 40.4156V5.54218C133.11 4.75584 132.966 4.55294 132.95 4.53681L132.929 4.51509L132.909 4.49267C132.909 4.49267 132.889 4.47126 132.838 4.43872C132.784 4.4046 132.707 4.36422 132.6 4.32102C132.385 4.23392 132.085 4.14977 131.691 4.07511L130.635 3.89299L130.326 3.8397L130.309 3.8369L130.176 3.80327C129.903 3.72871 129.628 3.60828 129.402 3.40112C129.149 3.16923 128.975 2.8424 128.936 2.4511L128.927 2.28015L128.936 2.09659C128.978 1.67487 129.166 1.3019 129.496 1.0618C129.651 0.948881 129.822 0.876883 129.997 0.832701C130.182 0.785975 130.371 0.770359 130.551 0.770347H141.486C141.661 0.770347 141.845 0.786207 142.026 0.832701C142.214 0.88117 142.399 0.962932 142.565 1.09473C142.941 1.39343 143.11 1.85632 143.11 2.339C143.11 2.75374 142.97 3.14281 142.687 3.42424C142.433 3.67571 142.12 3.7876 141.835 3.839L141.815 3.84181L140.455 4.04199L140.201 4.07931L140.198 4.08001C139.809 4.13516 139.512 4.20951 139.294 4.2944C139.091 4.37376 138.993 4.44842 138.953 4.48777C138.825 4.65611 138.676 4.84939 138.546 5.08678C138.405 5.34462 138.338 5.56815 138.338 5.74956L138.491 38.285V38.2899C138.491 39.3639 139.035 40.2879 139.675 40.7995C140.342 41.3003 141.37 41.5491 142.541 41.5491C142.996 41.5491 147.334 41.3251 157.446 41.2361C158.393 41.2278 158.708 41.2167 159.647 41.2076C159.724 41.1302 159.792 41.0474 159.851 40.9595C160.178 40.4359 160.484 39.6733 160.747 38.63L161.348 36.2256H163.988L163.296 38.9327C163.26 39.0707 163.229 39.2052 163.201 39.3355C163.215 39.2718 163.229 39.207 163.244 39.1415L163.296 38.9327L163.988 36.2256H164.749L163.993 39.18L163.992 39.1884C163.715 40.2303 163.779 40.8199 163.93 41.1361C163.935 41.1457 163.941 41.1545 163.946 41.1641C166.436 41.1354 168.769 41.1043 170.776 41.0695C172.701 41.0362 174.323 40.9997 175.492 40.9609C176.077 40.9415 176.544 40.9217 176.878 40.9014C177.011 40.8933 177.12 40.8839 177.204 40.8762C177.184 40.7381 177.155 40.5805 177.114 40.4019L174.962 31.6912H170.575V31.6786H165.151L158.52 31.6785V31.6911L151.399 31.871C151.354 31.871 151.31 31.8691 151.266 31.8675C149.952 31.8419 148.595 31.8361 147.117 31.9943C146.556 32.0544 146.042 31.9846 145.647 31.7126C145.206 31.409 144.959 30.8709 145.031 30.275C145.095 29.7486 145.388 29.3316 145.719 29.065C146.064 28.788 146.505 28.6203 146.998 28.6061C147.319 28.5969 147.465 28.4675 147.628 28.2397C147.739 28.0841 147.811 27.9504 147.96 27.715C148.054 27.5654 148.172 27.3899 148.32 27.2224C148.322 27.2171 148.324 27.2119 148.326 27.207C148.357 27.1303 148.4 27.0419 148.413 27.0144L148.417 27.0046L148.42 5.60383C148.42 5.04023 148.213 4.72161 148.089 4.59846L148.067 4.57744L148.048 4.55432C148.048 4.55432 148.029 4.53454 147.976 4.50108C147.923 4.467 147.846 4.42651 147.739 4.38337C147.525 4.297 147.229 4.21307 146.839 4.13886L145.464 3.90136L145.448 3.89855L145.431 3.89505C145.121 3.82398 144.799 3.70011 144.54 3.46348C144.287 3.23164 144.114 2.90461 144.074 2.51345L144.066 2.34181L144.075 2.15825C144.117 1.73659 144.305 1.36349 144.635 1.12345C144.954 0.891283 145.34 0.832701 145.69 0.832701H148.493H156.624C156.982 0.832719 157.378 0.898891 157.703 1.15708C158.079 1.45584 158.248 1.91864 158.248 2.40136C158.248 2.81609 158.109 3.20517 157.825 3.4866C157.572 3.73798 157.258 3.84924 156.973 3.90066L156.964 3.90276L156.954 3.90416L155.34 4.14096L155.337 4.14167C154.948 4.1968 154.651 4.27191 154.433 4.35675C154.214 4.44225 154.117 4.52146 154.083 4.55783C153.917 4.77327 153.807 4.88331 153.668 5.1113C153.558 5.29124 153.5 5.44943 153.487 5.59963L153.484 5.66338L153.476 24.6323C153.476 25.1588 153.63 25.7369 153.887 26.2675C154.144 26.797 154.474 27.2139 154.762 27.4445C155.422 27.9395 156.331 28.1388 157.513 28.1388C157.93 28.1388 157.59 27.9662 163.417 27.943L170.008 1.56375C170.102 1.12301 170.28 0.60549 170.676 0.310369L170.705 0.28865L170.736 0.269733C170.999 0.113363 171.293 4.55058e-06 171.602 0ZM130.442 44.327L130.551 44.3298L158.383 44.1499C158.399 44.1502 158.415 44.152 158.432 44.152L166.165 44.1522C166.191 44.1522 166.216 44.151 166.241 44.1501H175.171C175.196 44.1511 175.221 44.1522 175.247 44.1522H185.465L185.518 44.1494C185.501 44.1498 185.484 44.1522 185.465 44.1522H175.247C175.221 44.1522 175.196 44.1511 175.171 44.1501H166.241C166.216 44.151 166.191 44.1522 166.165 44.1522L158.432 44.152C158.415 44.152 158.399 44.1502 158.383 44.1499L130.551 44.3298C130.503 44.3298 130.457 44.3263 130.414 44.3235C130.423 44.3241 130.433 44.3266 130.442 44.327ZM185.625 44.1445L185.675 44.1431C185.69 44.1417 185.704 44.1385 185.718 44.1368C185.688 44.1404 185.657 44.1422 185.625 44.1445ZM137.771 38.554C137.772 38.5639 137.773 38.5737 137.774 38.5835C137.772 38.5621 137.771 38.5406 137.77 38.519L137.771 38.554ZM138.588 3.74022C138.531 3.78428 138.481 3.83112 138.438 3.88034C138.199 4.19665 137.61 4.91853 137.61 5.74886L137.762 38.2892C137.762 38.3666 137.766 38.4432 137.77 38.519L137.762 38.2892L137.61 5.74886C137.61 4.91853 138.199 4.19665 138.438 3.88034C138.503 3.80655 138.584 3.73919 138.679 3.67646L138.588 3.74022ZM151.277 31.0106C149.959 30.985 148.569 30.9777 147.051 31.1402C146.97 31.1489 146.893 31.1532 146.82 31.155C146.838 31.1547 146.856 31.1558 146.875 31.155L147.051 31.1402C148.569 30.9777 149.959 30.985 151.277 31.0106L151.399 31.0134C151.358 31.0134 151.317 31.0123 151.277 31.0106ZM167.045 26.8837L166.801 27.9255C169.414 27.9089 171.949 27.8852 174.009 27.8491L173.773 26.897L173.771 26.89L170.484 13.231L167.045 26.8837ZM153.577 3.94269C153.338 4.25901 152.756 4.83236 152.756 5.66268L152.748 24.6309C152.748 24.6514 152.749 24.672 152.749 24.6925L152.748 24.6309L152.756 5.66268C152.756 4.83236 153.338 4.25901 153.577 3.94269ZM154.939 3.34157L154.95 3.34017L154.959 3.33807C154.953 3.3393 154.946 3.34032 154.939 3.34157ZM155.249 3.29043C155.149 3.30472 155.052 3.32061 154.959 3.33807L155.249 3.29043ZM139.811 3.27782C139.761 3.28705 139.713 3.29789 139.666 3.30794C139.725 3.29537 139.786 3.28319 139.848 3.27151L139.811 3.27782ZM141.724 2.99127L140.111 3.22807C140.02 3.24097 139.932 3.25574 139.848 3.27151L140.111 3.22807L141.724 2.99127ZM145.249 2.95063C145.261 2.95614 145.275 2.96008 145.288 2.96535C145.268 2.95734 145.249 2.94938 145.23 2.94082L145.249 2.95063ZM157.52 2.40066C157.52 2.4314 157.517 2.46096 157.514 2.48963C157.515 2.48191 157.518 2.47439 157.518 2.46651L157.52 2.40066ZM142.382 2.3383C142.382 2.36181 142.381 2.38468 142.379 2.40696L142.379 2.40416L142.382 2.3383ZM142.264 1.91654C142.286 1.94783 142.306 1.98176 142.322 2.01813L142.295 1.96558C142.286 1.9486 142.275 1.93224 142.264 1.91654Z" fill="var(--fill-0, black)"/>
<path fill-rule="evenodd" clip-rule="evenodd" d="M9.98917 0.770347C10.7 0.770347 11.3526 0.940703 11.8862 1.35886C12.4299 1.78487 12.7795 2.41353 12.9588 3.16992L19.8534 31.3904L27.0383 2.86656C27.199 2.20895 27.5103 1.65691 27.9931 1.28249C28.4661 0.915748 29.0374 0.770347 29.6481 0.770347H36.6991C37.0492 0.77037 37.4347 0.829464 37.7539 1.0618C38.1307 1.33619 38.3232 1.78428 38.3232 2.28015C38.3231 2.74742 38.137 3.1362 37.8478 3.40112C37.6217 3.60829 37.347 3.72871 37.0739 3.80327L36.9407 3.8369L36.924 3.8397L35.5588 4.07441C35.1638 4.14908 34.8568 4.23431 34.6272 4.32382C34.3891 4.41668 34.2785 4.4985 34.2399 4.53681C34.233 4.54609 34.2043 4.59118 34.1774 4.71546C34.1511 4.83775 34.1329 5.00975 34.1328 5.24162L34.1388 5.49384L34.1394 5.50014V5.50715L35.3339 40.3672L35.3511 40.6299C35.372 40.8746 35.4035 41.0653 35.4398 41.2093C35.4635 41.3036 35.4871 41.3688 35.5064 41.4111C35.5242 41.4501 35.5361 41.4651 35.5361 41.4651C35.5361 41.4651 35.5578 41.487 35.6069 41.5183C35.6606 41.5524 35.7381 41.5928 35.8449 41.636C36.0585 41.7224 36.3544 41.8063 36.7443 41.8805L38.1191 42.118L38.1358 42.1208L38.1524 42.1243C38.4627 42.1954 38.7846 42.3192 39.0429 42.5559C39.3321 42.8209 39.5177 43.2102 39.5177 43.6776C39.5176 44.1734 39.3258 44.6216 38.949 44.8959C38.6298 45.1283 38.2443 45.1867 37.8942 45.1867H27.0788C26.7288 45.1867 26.3433 45.1282 26.0241 44.8959C25.6943 44.6559 25.5057 44.2828 25.4637 43.8611L25.4548 43.6776L25.4631 43.5059C25.5026 43.1148 25.6765 42.7878 25.9295 42.5559C26.1878 42.3192 26.5098 42.1954 26.82 42.1243L26.8367 42.1208L26.8539 42.118L28.2281 41.8805C28.6184 41.8063 28.9231 41.722 29.1507 41.6332C29.3883 41.5405 29.4987 41.4593 29.5374 41.4209C29.5438 41.4125 29.5727 41.3681 29.5999 41.2423C29.6351 41.0793 29.656 40.8278 29.6385 40.4639L29.638 40.4548V40.4457L28.7064 9.35207L20.3079 43.0295C20.2043 43.5131 19.9899 44.0254 19.5482 44.3046C19.3015 44.4807 19.0205 44.594 18.713 44.594C18.4033 44.5939 18.1095 44.4799 17.8469 44.3235C17.3852 44.0485 17.1644 43.5219 17.0587 43.0274L8.70067 9.35137L7.60907 39.2659C7.57373 40.2491 7.73747 40.8619 7.98206 41.2346C8.2125 41.5477 8.69425 41.8523 9.60845 41.9975L10.3639 42.1131C10.6828 42.1413 11.0325 42.2359 11.3175 42.4971C11.648 42.7999 11.7922 43.2336 11.7922 43.6776C11.7922 44.1734 11.6004 44.6216 11.2235 44.8959C10.9044 45.1282 10.5188 45.1867 10.1688 45.1867H1.62401C1.27401 45.1867 0.888506 45.1282 0.569297 44.8959C0.239518 44.6559 0.0509124 44.2828 0.00892318 43.8611L0 43.6776L0.00654363 43.5115C0.0387227 43.1271 0.185604 42.7621 0.474712 42.4971C0.759684 42.236 1.10948 42.1413 1.4283 42.1131L2.18736 41.9975C3.16671 41.848 3.61647 41.5341 3.79412 41.2598L3.79769 41.2535L3.80186 41.2479C4.07009 40.8485 4.26651 40.1998 4.30274 39.193L5.49785 5.50645V5.50014L5.49845 5.49384C5.5159 5.1301 5.49494 4.87848 5.45978 4.71546C5.4329 4.59094 5.40416 4.54597 5.39732 4.53681C5.36753 4.50724 5.25676 4.42506 4.99399 4.32943C4.74359 4.23831 4.40512 4.1519 3.96842 4.07651L2.59366 3.8397L2.57701 3.8369L2.44375 3.80327C2.17075 3.7287 1.89589 3.60825 1.66982 3.40112C1.41677 3.16922 1.24289 2.84235 1.20344 2.4511L1.19511 2.28015L1.20403 2.09659C1.24595 1.67479 1.43453 1.30191 1.7644 1.0618C2.08363 0.829505 2.46907 0.770347 2.81912 0.770347H9.98917ZM10.1682 44.3291H1.62342C1.57575 44.3291 1.52987 44.3263 1.486 44.3235C1.49565 44.3242 1.50531 44.3266 1.51515 44.327L1.62342 44.3291H10.1682L10.2771 44.327C10.2887 44.3265 10.3002 44.3243 10.3116 44.3235C10.2659 44.3266 10.2181 44.3291 10.1682 44.3291ZM37.8936 44.3291H27.0782C27.0305 44.3291 26.9847 44.3263 26.9408 44.3235C26.9504 44.3242 26.9601 44.3266 26.9699 44.327L27.0782 44.3291H37.8936L38.0025 44.327C38.0142 44.3265 38.0256 44.3243 38.037 44.3235C37.9913 44.3266 37.9435 44.3291 37.8936 44.3291ZM11.0641 43.6769C11.0641 43.714 11.0608 43.7494 11.0564 43.7834C11.0575 43.7745 11.0603 43.7658 11.0611 43.7567L11.0641 43.6769ZM38.7895 43.6769C38.7895 43.7141 38.7862 43.7494 38.7818 43.7834C38.7829 43.7745 38.7857 43.7658 38.7866 43.7567L38.7895 43.6769ZM34.6795 41.1393C34.6965 41.2435 34.7146 41.3408 34.7366 41.4307L34.6914 41.2143C34.687 41.1898 34.6836 41.1646 34.6795 41.1393ZM8.07664 6.4901L6.88154 39.2287C6.87975 39.2783 6.87945 39.3273 6.87856 39.3759L6.88154 39.2287L8.07664 6.4901ZM28.8581 6.10687L28.8509 6.11247C28.8552 6.10922 28.8596 6.10627 28.864 6.10336L28.8581 6.10687ZM29.143 6.08865C29.1356 6.08655 29.1282 6.08389 29.1204 6.08235L29.1097 6.08094C29.1212 6.08318 29.1323 6.08558 29.143 6.08865ZM29.0508 6.07534L29.1097 6.08094C29.091 6.07729 29.0718 6.07535 29.0508 6.07534ZM35.4434 3.22807C34.6071 3.3862 34.0494 3.60366 33.7706 3.88034C33.7324 3.91816 33.698 3.96177 33.6659 4.00995C33.6832 3.98393 33.7015 3.95939 33.7206 3.93639L33.7706 3.88034C34.0494 3.60366 34.6071 3.3862 35.4434 3.22807ZM2.51871 2.94223C2.575 2.96062 2.63527 2.97725 2.69955 2.99197L4.07372 3.22877C4.27234 3.26306 4.45597 3.3001 4.62457 3.34017L4.35985 3.28202C4.26802 3.26338 4.17307 3.24592 4.07372 3.22877L2.69955 2.99197C2.57128 2.96259 2.45821 2.92529 2.36166 2.88127L2.51871 2.94223ZM37.5944 2.27945C37.5944 2.31023 37.5923 2.34011 37.5885 2.36913C37.5895 2.36121 37.5913 2.35337 37.592 2.34531L37.5944 2.27945ZM11.4038 2.01602C11.3809 1.99997 11.3585 1.98274 11.3348 1.96768L11.3015 1.94807C11.3364 1.96981 11.3704 1.99261 11.4038 2.01602Z" fill="var(--fill-0, black)"/>
<path fill-rule="evenodd" clip-rule="evenodd" d="M61.2711 0.770347C61.8198 0.770366 62.3543 0.905325 62.7773 1.2916C63.1634 1.64418 63.3762 2.1319 63.4603 2.67039L63.4888 2.90369L63.4906 2.92331L63.4912 2.94293L63.9689 12.7787C64.0133 13.227 63.9671 13.7533 63.6471 14.1687C63.3191 14.5943 62.8583 14.7019 62.4662 14.7019C62.1212 14.7019 61.756 14.6089 61.4502 14.3271C61.1395 14.0408 60.979 13.6422 60.9148 13.2355L60.5567 11.0419C60.1398 8.4843 59.3077 6.74598 58.1385 5.6879L58.1302 5.6795C56.9458 4.57307 55.2533 3.96724 52.9654 3.96721C51.3871 3.96721 50.4565 4.21253 50.0077 4.54662L50.0018 4.55082C49.6968 4.7728 49.4503 5.2178 49.4503 6.19444V20.4546C49.4781 20.4585 49.514 20.4609 49.5592 20.4609H52.5472C53.3171 20.4609 53.859 20.2571 54.2379 19.9298C54.611 19.6074 54.9012 19.1004 55.0683 18.3205L55.6632 15.3675L55.6692 15.3367L55.6775 15.3065C55.7922 14.8797 55.9994 14.4737 56.3503 14.2073C56.6583 13.9735 57.0033 13.903 57.3378 13.9277L57.4806 13.9445L57.4889 13.9452L57.4972 13.9466C57.8563 14.0115 58.2084 14.2016 58.4574 14.5835C58.6968 14.9508 58.772 15.3911 58.772 15.8026V29.147C58.772 29.5583 58.6966 29.9982 58.4574 30.3654C58.2084 30.7473 57.8563 30.9374 57.4972 31.0022L57.4806 31.005C57.1026 31.0627 56.7024 31.0088 56.3503 30.7416C55.9995 30.4752 55.7922 30.0692 55.6775 29.6423L55.6698 29.6143L55.6638 29.5856L55.0666 26.6795L55.066 26.676C54.7959 25.3356 54.4484 24.6926 54.1564 24.4473L54.1451 24.4382L54.1338 24.4277C53.834 24.155 53.3213 23.9541 52.4872 23.9541H49.5592C49.5139 23.9541 49.4781 23.9572 49.4503 23.9611V38.814C49.4503 40.0615 49.7569 40.785 50.226 41.2044C50.7853 41.667 51.9329 41.9898 53.8613 41.9898C55.7489 41.9898 57.3046 41.5225 58.562 40.632C59.7688 39.767 60.6879 38.1161 61.2206 35.4728L61.2211 35.47L61.938 31.9705L61.9403 31.9578L61.9433 31.9452C62.0366 31.5441 62.2198 31.168 62.5299 30.9013C62.8359 30.6381 63.1936 30.5433 63.5418 30.5433C63.9268 30.5433 64.3819 30.6593 64.697 31.1024C64.9924 31.5178 65.0281 32.0322 64.9849 32.4658L64.3871 43.0225L64.3865 43.0379L64.3847 43.0533C64.3295 43.6832 64.115 44.2633 63.6738 44.6661C63.2509 45.0524 62.7162 45.1866 62.1676 45.1867H41.194C40.844 45.1867 40.4585 45.1282 40.1393 44.8959C39.8095 44.6559 39.6209 44.2828 39.5789 43.8611L39.57 43.6776L39.5783 43.5059C39.6179 43.1148 39.7923 42.7878 40.0453 42.5559C40.3036 42.3194 40.6251 42.1954 40.9353 42.1243L40.9519 42.1208L40.9692 42.118L42.3433 41.8805C42.7335 41.8063 43.0297 41.7224 43.2434 41.636C43.35 41.5929 43.4271 41.5524 43.4807 41.5183C43.5345 41.4841 43.5521 41.4651 43.5521 41.4651L43.5717 41.4419L43.5932 41.4209C43.6072 41.407 43.7526 41.2067 43.7526 40.4156V5.54218C43.7526 4.75274 43.6077 4.55153 43.5932 4.53681L43.5717 4.51509L43.5521 4.49267C43.5521 4.49267 43.5332 4.47208 43.4807 4.43872C43.4271 4.40464 43.35 4.36415 43.2434 4.32102C43.0279 4.2339 42.7282 4.14979 42.3332 4.07511L40.9692 3.8397L40.9519 3.8369L40.8187 3.80327C40.5458 3.72872 40.2713 3.60812 40.0453 3.40112C39.7922 3.16921 39.6178 2.84242 39.5783 2.4511L39.57 2.28015L39.5789 2.09659C39.6208 1.67479 39.8094 1.30191 40.1393 1.0618C40.4586 0.829439 40.8439 0.770347 41.194 0.770347H61.2711ZM62.4865 44.3081C62.3863 44.3219 62.2798 44.3291 62.167 44.3291H41.1934C41.1457 44.3291 41.0999 44.3263 41.056 44.3235C41.0657 44.3242 41.0753 44.3266 41.0852 44.327L41.1934 44.3291H62.167L62.3342 44.3242C62.3865 44.3208 62.4372 44.3149 62.4865 44.3081ZM63.634 43.1661C63.636 43.1544 63.6393 43.143 63.6411 43.1311L63.6441 43.1031C63.641 43.1244 63.6375 43.1454 63.634 43.1661ZM63.6607 42.9651C63.6593 42.9811 63.6571 42.9969 63.6554 43.0127L63.6607 42.9651ZM49.1112 40.9508L49.1101 40.948C49.0541 40.8245 49.0052 40.6939 48.9613 40.5571C49.0055 40.695 49.0547 40.8265 49.1112 40.9508ZM48.7228 38.814V23.9275C48.7228 23.3741 49.0017 23.0973 49.5592 23.0973H52.4872C52.7732 23.0973 53.0379 23.1181 53.2813 23.1603L53.0945 23.1323C52.9039 23.1085 52.7018 23.0973 52.4872 23.0973H49.5592C49.0017 23.0973 48.7228 23.3741 48.7228 23.9275V38.814ZM57.3866 30.1545C57.3228 30.1642 57.2617 30.1682 57.2033 30.1678C57.2322 30.168 57.2618 30.168 57.292 30.1657L57.3866 30.1545ZM58.0374 15.6302C58.0419 15.6848 58.0439 15.742 58.0439 15.8019V29.1463C58.0439 29.1828 58.0432 29.2183 58.0415 29.2528L58.0439 29.1463V15.8019C58.0439 15.6819 58.0352 15.5734 58.0171 15.4747L58.0374 15.6302ZM63.2425 12.8362C63.3222 13.5083 63.063 13.8443 62.4656 13.8444C62.4294 13.8444 62.3943 13.8431 62.3603 13.8402C62.3665 13.8407 62.3726 13.8418 62.3788 13.8423L62.4656 13.8444C63.063 13.8443 63.3222 13.5083 63.2425 12.8362ZM62.1801 13.8065C62.1892 13.8092 62.1987 13.8104 62.208 13.8128C62.1928 13.809 62.1775 13.8062 62.1628 13.8016C62.1685 13.8034 62.1743 13.8049 62.1801 13.8065ZM52.9649 3.10967C51.3714 3.10967 50.256 3.34702 49.6187 3.82149C49.5899 3.8424 49.5627 3.86548 49.5354 3.88805L49.6187 3.82149C50.256 3.34702 51.3714 3.10967 52.9649 3.10967L53.3152 3.11528C53.1997 3.11215 53.0829 3.10967 52.9649 3.10967ZM53.7894 3.13629C53.6636 3.12802 53.5363 3.12176 53.4074 3.11738L53.3914 3.11668C53.5258 3.12113 53.6584 3.12767 53.7894 3.13629Z" fill="var(--fill-0, black)"/>
<path fill-rule="evenodd" clip-rule="evenodd" d="M80.3399 0.770347C83.5702 0.770379 86.4038 1.71776 88.8092 3.64213C91.206 5.52027 93.0435 8.16381 94.3284 11.5373C95.6129 14.9097 96.2445 18.7896 96.2445 23.1568C96.2445 27.5684 95.5717 31.4391 94.1987 34.7427C92.8693 38.0376 90.9685 40.615 88.4951 42.4459C86.011 44.2847 83.083 45.1867 79.742 45.1867H68.2698C67.9197 45.1867 67.5338 45.1283 67.2145 44.8959C66.8848 44.6559 66.6967 44.2827 66.6547 43.8611L66.6458 43.6776L66.6542 43.5059C66.6937 43.1148 66.8675 42.7878 67.1205 42.5559C67.3789 42.3192 67.7008 42.1954 68.0111 42.1243L68.0277 42.1208L68.0444 42.118L69.4174 41.8805C70.0094 41.7768 70.3521 41.5728 70.5423 41.3565C70.7141 41.1609 70.8284 40.8799 70.8284 40.4156V5.54218C70.8284 4.75454 70.6841 4.55235 70.669 4.53681L70.6476 4.51509L70.6273 4.49267C70.6273 4.49267 70.6067 4.47066 70.5565 4.43872C70.5029 4.40461 70.4254 4.3642 70.3186 4.32102C70.1032 4.23393 69.8039 4.14976 69.409 4.07511L68.0444 3.8397L68.0277 3.8369L67.8945 3.80327C67.6215 3.7287 67.3466 3.60825 67.1205 3.40112C66.8675 3.16922 66.6936 2.84236 66.6542 2.4511L66.6458 2.28015L66.6547 2.09659C66.6967 1.67491 66.8848 1.30191 67.2145 1.0618C67.5338 0.829419 67.9197 0.770347 68.2698 0.770347H80.3399ZM80.9205 44.2885C80.5342 44.3152 80.1411 44.3291 79.7414 44.3291H68.2692C68.2218 44.3291 68.1761 44.3263 68.1324 44.3235C68.1419 44.3241 68.1513 44.3266 68.161 44.327L68.2692 44.3291H79.7414L80.3423 44.3193C80.5367 44.3127 80.7294 44.3017 80.9205 44.2885ZM89.3725 40.6657C88.9697 41.042 88.5479 41.3932 88.1072 41.7194C88.0049 41.7951 87.9012 41.8684 87.7973 41.9408C87.8266 41.9203 87.8567 41.9012 87.8859 41.8805L88.1072 41.7194C88.658 41.3117 89.1796 40.8653 89.6711 40.3791L89.3725 40.6657ZM80.3399 4.02677C78.9055 4.02677 77.9644 4.372 77.3917 4.91794C76.8484 5.43587 76.5262 6.24152 76.5261 7.49897V38.4581C76.5261 39.914 76.819 40.7419 77.2245 41.1827C77.7131 41.6273 78.5831 41.931 79.9812 41.931C83.2923 41.931 85.7442 40.3859 87.4356 37.2838L87.6021 36.9756C89.2578 33.8214 90.1286 29.2483 90.1286 23.1568C90.1286 16.9076 89.2404 12.1831 87.545 8.89248L87.5427 8.88687L87.5397 8.88197C85.9177 5.62544 83.5475 4.02682 80.3399 4.02677ZM75.8022 38.7509L75.7986 38.4581V7.49897C75.7986 4.61269 77.3124 3.16922 80.3399 3.16922L80.6623 3.17483C80.7654 3.17815 80.8677 3.18301 80.9693 3.18954C80.7625 3.17592 80.5531 3.16923 80.3399 3.16922C77.3124 3.16922 75.7986 4.61269 75.7986 7.49897V38.4581C75.7986 38.5577 75.7995 38.6549 75.8022 38.7509ZM93.0102 35.5821L93.0417 35.5183C93.0612 35.4769 93.0795 35.4346 93.0988 35.3929C93.0695 35.4562 93.04 35.5194 93.0102 35.5821ZM95.5033 24.158C95.5049 24.0916 95.508 24.025 95.5092 23.9583L95.5104 23.8266C95.5087 23.9375 95.506 24.0479 95.5033 24.158ZM95.5164 23.1561C95.5164 23.2212 95.5155 23.2861 95.5152 23.3509L95.5164 23.1561ZM93.6639 11.8876C93.8155 12.2855 93.9575 12.6912 94.0905 13.1045C94.0253 12.9019 93.9585 12.7009 93.8888 12.502L93.6639 11.8876ZM67.9694 2.94223C68.0257 2.96062 68.086 2.97725 68.1503 2.99197C68.022 2.96259 67.9089 2.92529 67.8124 2.88127L67.9694 2.94223Z" fill="var(--fill-0, black)"/>
</g>
</svg>
