<svg preserveAspectRatio="none" width="100%" height="100%" overflow="visible" style="display: block;" viewBox="0 0 152.32 67.7432" fill="none" xmlns="http://www.w3.org/2000/svg">
<g id="Subtract">
<path fill-rule="evenodd" clip-rule="evenodd" d="M128.077 0C128.57 0 129.044 0.140186 129.471 0.43023C130.167 0.849067 130.503 1.62297 130.666 2.35255L145.446 58.9467C145.869 60.5621 146.304 61.4718 146.667 61.8951C146.996 62.2798 147.605 62.6478 148.658 62.861L150.061 63.1288L150.074 63.1309C150.595 63.2374 151.13 63.4312 151.557 63.809C152.033 64.2312 152.32 64.8422 152.32 65.5605C152.32 65.9063 152.251 66.2711 152.073 66.6097C151.897 66.9468 151.65 67.189 151.389 67.3552C150.901 67.6656 150.316 67.7432 149.779 67.7432H133.783C133.734 67.7432 133.684 67.7419 133.633 67.7401H119.715C119.664 67.7418 119.614 67.7432 119.565 67.7432H107.721C107.67 67.7432 107.619 67.7416 107.568 67.7401L66.2733 67.7386C65.7253 67.7386 65.1219 67.6507 64.6222 67.301C64.106 66.9397 63.8117 66.3781 63.7459 65.7435L63.731 65.4672L63.745 65.2089C63.8069 64.6202 64.079 64.128 64.4751 63.779C64.8795 63.4228 65.3834 63.2364 65.8691 63.1295L65.8952 63.1242L65.9213 63.12L68.0724 62.7625C68.6833 62.6508 69.1468 62.5245 69.4814 62.3945C69.6486 62.3295 69.7699 62.2687 69.8539 62.2173C69.9311 62.1701 69.9614 62.1404 69.9647 62.1372L69.9964 62.1024L70.0299 62.0708C70.0529 62.0483 70.2794 61.7451 70.2794 60.5576V8.06955C70.2794 6.88604 70.0542 6.58065 70.0299 6.55637L69.9964 6.52368L69.9647 6.48993C69.9647 6.48993 69.9339 6.45771 69.8539 6.40874C69.7699 6.35738 69.6486 6.2966 69.4814 6.23158C69.1441 6.10049 68.6757 5.97384 68.0575 5.86146L65.9213 5.50715L65.8952 5.50294L65.6866 5.45232C65.2592 5.34009 64.829 5.15885 64.4751 4.84705C64.0789 4.49802 63.8068 4.00611 63.745 3.41717L63.731 3.15987L63.7459 2.8836C63.8115 2.24886 64.106 1.6875 64.6222 1.32612C65.1219 0.976438 65.7253 0.887492 66.2733 0.887457H83.3912C83.9512 0.887457 84.5714 0.987033 85.0805 1.37568C85.6694 1.82526 85.9334 2.52195 85.9335 3.24845C85.9335 3.87268 85.7151 4.45826 85.2714 4.88184C84.8748 5.26032 84.3838 5.42873 83.9379 5.5061L83.9062 5.51032L81.3807 5.86779L81.376 5.86884C80.7672 5.95185 80.3014 6.06375 79.9606 6.19151C79.642 6.31097 79.4888 6.42334 79.427 6.48255C79.2267 6.73592 78.9934 7.02683 78.79 7.38414C78.5691 7.77221 78.4631 8.10864 78.4631 8.38168L78.7025 57.3509V57.3583C78.7025 58.9747 79.5549 60.3654 80.5566 61.1354C81.6005 61.8892 83.21 62.2637 85.0432 62.2637C85.7561 62.2637 90.348 62.1987 106.178 62.0648C107.66 62.0523 107.891 62.0353 109.361 62.0216C109.482 61.9052 109.588 61.7805 109.682 61.6483C110.193 60.8601 110.673 59.7125 111.084 58.1422L112.025 54.5232H116.157L115.074 58.5977C115.017 58.8054 114.969 59.0078 114.925 59.204C114.947 59.1081 114.969 59.0106 114.993 58.9119L115.074 58.5977L116.159 54.5232H117.348L116.166 58.9699L116.163 58.9826C115.731 60.5507 115.83 61.4381 116.067 61.9141C116.074 61.9285 116.083 61.9418 116.091 61.9562C119.989 61.913 123.642 61.8662 126.783 61.8139C129.797 61.7637 132.336 61.7088 134.166 61.6504C135.082 61.6212 135.813 61.5914 136.336 61.5608C136.545 61.5485 136.714 61.5344 136.846 61.5228C136.815 61.3151 136.769 61.0778 136.705 60.809L133.337 47.6986H126.468V47.6796H117.978H107.86V47.6986L98.9103 47.6971C98.84 47.6971 98.7698 47.6943 98.7008 47.6918C96.644 47.6533 94.5204 47.6446 92.2073 47.8827C91.3278 47.9732 90.5233 47.8681 89.9052 47.4588C89.2154 47.0017 88.8282 46.1919 88.9414 45.295C89.0415 44.5027 89.5005 43.8751 90.0188 43.4739C90.5576 43.057 91.249 42.8045 92.0201 42.7832C92.5235 42.7692 92.7511 42.5746 93.0062 42.2317C93.1805 41.9975 93.2929 41.7962 93.5259 41.4419C93.6739 41.2168 93.8582 40.9526 94.0902 40.7006C94.0935 40.6926 94.0964 40.6847 94.0995 40.6774C94.1483 40.5619 94.2155 40.4289 94.2355 40.3874C94.2379 40.3823 94.2398 40.3771 94.242 40.3726L94.2457 8.16235C94.2457 7.31406 93.9221 6.83451 93.728 6.64916L93.6944 6.61753L93.6637 6.58273C93.6637 6.58273 93.6343 6.55295 93.5519 6.50259C93.4681 6.4513 93.3473 6.39035 93.1804 6.32543C92.846 6.19543 92.382 6.06911 91.7714 5.95742L89.6193 5.59995L89.5933 5.59573L89.5672 5.59046C89.0815 5.48348 88.5775 5.29706 88.1731 4.9409C87.777 4.59196 87.5049 4.09974 87.4431 3.51101L87.43 3.25267L87.444 2.97639C87.5097 2.34176 87.805 1.78019 88.3212 1.41892C88.8209 1.06948 89.4244 0.981307 89.9723 0.981307H107.089C107.649 0.981334 108.27 1.08093 108.779 1.46953C109.367 1.91919 109.632 2.61575 109.632 3.3423C109.632 3.96651 109.413 4.55211 108.969 4.97569C108.573 5.35405 108.082 5.52151 107.636 5.59889L107.621 5.60206L107.605 5.60417L105.08 5.96058L105.074 5.96164C104.466 6.04462 104 6.15767 103.66 6.28536C103.316 6.41405 103.164 6.53326 103.112 6.588C102.851 6.91227 102.679 7.07789 102.461 7.42104C102.289 7.69186 102.198 7.92995 102.178 8.15602L102.173 8.25198L102.161 36.8021C102.161 37.5945 102.402 38.4646 102.805 39.2633C103.207 40.0603 103.723 40.6877 104.174 41.0348C105.207 41.7799 106.63 42.0798 108.481 42.0798C109.133 42.0798 106.142 42.092 115.263 42.0571L125.582 2.35361C125.728 1.69024 126.007 0.911325 126.627 0.467137L126.673 0.434448L126.721 0.405977C127.132 0.170622 127.592 6.84909e-06 128.077 0ZM66.1038 66.4448L66.2733 66.449L107.646 66.4504C107.67 66.4509 107.695 66.4536 107.721 66.4536H119.565C119.605 66.4536 119.645 66.4519 119.684 66.4504H133.664C133.703 66.4519 133.742 66.4536 133.783 66.4536H149.779L149.862 66.4494C149.834 66.45 149.807 66.4536 149.779 66.4536H133.783C133.742 66.4536 133.703 66.4519 133.664 66.4504H119.684C119.645 66.4519 119.605 66.4536 119.565 66.4536H107.721C107.695 66.4536 107.67 66.4509 107.646 66.4504L66.2733 66.449C66.1992 66.449 66.1273 66.4436 66.0591 66.4395C66.0739 66.4404 66.0887 66.4441 66.1038 66.4448ZM150.028 66.442L150.107 66.4399C150.13 66.4378 150.152 66.4329 150.175 66.4304C150.127 66.4358 150.079 66.4385 150.028 66.442ZM77.5766 57.7558C77.5776 57.7706 77.5792 57.7853 77.5803 57.8001C77.5778 57.7679 77.5767 57.7355 77.5747 57.7031L77.5766 57.7558ZM78.8552 5.35742C78.7659 5.42373 78.6875 5.49424 78.6196 5.56831C78.2454 6.0444 77.3233 7.1309 77.3233 8.38062L77.5626 57.3572C77.5626 57.4737 77.5677 57.589 77.5747 57.7031L77.5626 57.3572L77.3233 8.38062C77.3233 7.1309 78.2454 6.0444 78.6196 5.56831C78.7214 5.45725 78.8481 5.35587 78.9977 5.26146L78.8552 5.35742ZM98.7194 46.4022C96.6548 46.3635 94.4802 46.3526 92.103 46.5973C91.9761 46.6103 91.8557 46.6168 91.7416 46.6194C91.7697 46.6189 91.7984 46.6207 91.8273 46.6194L92.103 46.5973C94.4802 46.3526 96.6548 46.3635 98.7194 46.4022L98.9103 46.4064C98.8461 46.4064 98.7815 46.4047 98.7194 46.4022ZM120.943 40.4627L120.561 42.0307C124.652 42.0058 128.62 41.9701 131.844 41.9158L131.474 40.4827L131.472 40.4722L126.327 19.9139L120.943 40.4627ZM102.319 5.66216C101.944 6.13825 101.033 7.0012 101.033 8.25092L101.021 36.8C101.021 36.831 101.023 36.8619 101.023 36.8928L101.021 36.8L101.033 8.25092C101.033 7.0012 101.944 6.13825 102.319 5.66216ZM104.452 4.75742C104.457 4.75648 104.463 4.75624 104.468 4.75531L104.483 4.75214C104.473 4.754 104.462 4.75553 104.452 4.75742ZM104.937 4.68044C104.779 4.70195 104.628 4.72587 104.483 4.75214L104.937 4.68044ZM80.7689 4.66146C80.6915 4.67536 80.6163 4.69166 80.5426 4.7068C80.6348 4.68788 80.7298 4.66954 80.8276 4.65197L80.7689 4.66146ZM83.7647 4.23017L81.2392 4.58659C81.0968 4.606 80.9596 4.62824 80.8276 4.65197L81.2392 4.58659L83.7647 4.23017ZM89.2822 4.16901C89.3018 4.1773 89.3224 4.18323 89.3428 4.19116C89.3118 4.17911 89.2816 4.16712 89.2524 4.15425L89.2822 4.16901ZM108.492 3.34124C108.492 3.38751 108.488 3.43201 108.482 3.47516C108.484 3.46354 108.488 3.45222 108.489 3.44036L108.492 3.34124ZM84.7937 3.24739C84.7937 3.28277 84.792 3.3172 84.789 3.35073L84.79 3.34651L84.7937 3.24739ZM84.6093 2.61259C84.6444 2.65968 84.6745 2.71076 84.6996 2.76549L84.6586 2.68641C84.6435 2.66085 84.627 2.63623 84.6093 2.61259Z" fill="var(--fill-0, black)"/>
<path fill-rule="evenodd" clip-rule="evenodd" d="M15.6373 0.887457C16.7501 0.887457 17.7717 1.14386 18.607 1.77322C19.4581 2.41442 20.0054 3.36062 20.286 4.49907L31.0791 46.9737L42.3265 4.04248C42.578 3.0527 43.0653 2.22183 43.8212 1.65829C44.5615 1.1063 45.4559 0.887457 46.4119 0.887457H57.4498C57.9978 0.887493 58.6012 0.976434 59.1009 1.32612C59.6908 1.73911 59.9921 2.41354 59.9921 3.15987C59.992 3.86316 59.7006 4.44832 59.248 4.84705C58.8941 5.15885 58.4639 5.34009 58.0365 5.45232L57.8279 5.50294L57.8018 5.50715L55.6646 5.86041C55.0464 5.9728 54.5657 6.10108 54.2063 6.2358C53.8335 6.37556 53.6605 6.49871 53.6001 6.55637C53.5892 6.57033 53.5443 6.6382 53.5023 6.82526C53.461 7.00932 53.4326 7.2682 53.4324 7.61718L53.4418 7.99679L53.4427 8.00628V8.01683L55.3126 60.4848L55.3396 60.8802C55.3723 61.2485 55.4216 61.5355 55.4784 61.7523C55.5156 61.8942 55.5525 61.9922 55.5827 62.056C55.6105 62.1147 55.6292 62.1372 55.6292 62.1372C55.6327 62.1407 55.6631 62.1703 55.74 62.2173C55.824 62.2687 55.9453 62.3295 56.1125 62.3945C56.4469 62.5245 56.9101 62.6508 57.5206 62.7625L59.6727 63.12L59.6987 63.1242L59.7248 63.1295C60.2105 63.2364 60.7144 63.4228 61.1189 63.779C61.5716 64.1778 61.862 64.7638 61.862 65.4672C61.8619 66.2136 61.5617 66.8881 60.9717 67.301C60.4721 67.6507 59.8686 67.7386 59.3207 67.7386H42.3898C41.8419 67.7386 41.2385 67.6506 40.7388 67.301C40.2225 66.9397 39.9273 66.3782 39.8615 65.7435L39.8476 65.4672L39.8606 65.2089C39.9225 64.6202 40.1946 64.128 40.5907 63.779C40.9951 63.4228 41.4991 63.2365 41.9848 63.1295L42.0108 63.1242L42.0378 63.12L44.189 62.7625C44.8 62.6508 45.2769 62.5239 45.6333 62.3903C46.0052 62.2508 46.178 62.1285 46.2386 62.0708C46.2486 62.0581 46.2939 61.9913 46.3364 61.8019C46.3915 61.5565 46.4243 61.178 46.397 60.6303L46.396 60.6166V60.6029L44.9377 13.8038L31.7905 64.4919C31.6284 65.2197 31.2926 65.9907 30.6013 66.411C30.2151 66.6761 29.7752 66.8465 29.2939 66.8465C28.8091 66.8464 28.349 66.6748 27.938 66.4395C27.2152 66.0255 26.8696 65.233 26.7041 64.4887L13.6203 13.8028L11.9114 58.8272C11.8561 60.3071 12.1124 61.2294 12.4953 61.7903C12.8561 62.2615 13.6102 62.7201 15.0413 62.9386L16.224 63.1126C16.7231 63.1549 17.2706 63.2974 17.7168 63.6904C18.2341 64.1463 18.4599 64.799 18.4599 65.4672C18.4598 66.2136 18.1596 66.8881 17.5696 67.301C17.07 67.6507 16.4665 67.7386 15.9185 67.7386H2.54227C1.99437 67.7386 1.39089 67.6505 0.891193 67.301C0.374948 66.9397 0.0796996 66.3782 0.0139685 65.7435L0 65.4672L0.0102436 65.2173C0.0606176 64.6387 0.29055 64.0893 0.743126 63.6904C1.18923 63.2975 1.7368 63.155 2.2359 63.1126L3.42415 62.9386C4.95725 62.7135 5.66132 62.2411 5.93942 61.8282L5.94501 61.8187L5.95153 61.8103C6.37142 61.2092 6.67891 60.2329 6.73563 58.7175L8.60648 8.01577V8.00628L8.60741 7.99679C8.63473 7.44933 8.60193 7.07062 8.54688 6.82526C8.5048 6.63784 8.45981 6.57015 8.4491 6.55637C8.40248 6.51187 8.22907 6.38817 7.81772 6.24424C7.42574 6.1071 6.8959 5.97704 6.21227 5.86357L4.06019 5.50715L4.03411 5.50294L3.82552 5.45232C3.39815 5.34009 2.96787 5.15879 2.61398 4.84705C2.21785 4.49802 1.94566 4.00604 1.88389 3.41717L1.87085 3.15987L1.88482 2.8836C1.95044 2.24875 2.24566 1.68751 2.76205 1.32612C3.26178 0.976496 3.86515 0.887457 4.41313 0.887457H15.6373ZM15.9176 66.4479H2.54134C2.46672 66.4479 2.39489 66.4436 2.32623 66.4395C2.34134 66.4404 2.35646 66.444 2.37186 66.4448L2.54134 66.4479H15.9176L16.088 66.4448C16.1063 66.4439 16.1242 66.4406 16.142 66.4395C16.0705 66.4441 15.9957 66.4479 15.9176 66.4479ZM59.3197 66.4479H42.3889C42.3143 66.4479 42.2425 66.4437 42.1738 66.4395C42.1889 66.4404 42.204 66.444 42.2194 66.4448L42.3889 66.4479H59.3197L59.4901 66.4448C59.5084 66.4439 59.5263 66.4406 59.5441 66.4395C59.4726 66.4441 59.3978 66.4479 59.3197 66.4479ZM17.3201 65.4662C17.32 65.5221 17.3148 65.5754 17.3079 65.6265C17.3097 65.6131 17.3141 65.6001 17.3154 65.5864L17.3201 65.4662ZM60.7222 65.4662C60.7221 65.5221 60.7169 65.5754 60.71 65.6265C60.7118 65.6131 60.7162 65.6001 60.7175 65.5864L60.7222 65.4662ZM54.2883 61.6469C54.3147 61.8037 54.3432 61.9502 54.3776 62.0855L54.3069 61.7597C54.3 61.7228 54.2947 61.685 54.2883 61.6469ZM12.6434 9.49627L10.7725 58.7713C10.7697 58.8459 10.7693 58.9197 10.7679 58.9927L10.7725 58.7713L12.6434 9.49627ZM45.1752 8.91947C45.1713 8.92204 45.1678 8.92517 45.164 8.9279C45.1707 8.92301 45.1776 8.91857 45.1845 8.91419L45.1752 8.91947ZM45.6212 8.89205C45.6097 8.8889 45.598 8.88488 45.5859 8.88256L45.5691 8.88045C45.5871 8.88382 45.6045 8.88743 45.6212 8.89205ZM45.4769 8.87201L45.5691 8.88045C45.5398 8.87495 45.5098 8.87203 45.4769 8.87201ZM55.484 4.58659C54.1748 4.82458 53.3019 5.15189 52.8653 5.56831C52.8057 5.62524 52.7517 5.69087 52.7014 5.76339C52.7286 5.72423 52.7572 5.68729 52.7871 5.65267L52.8653 5.56831C53.3019 5.15189 54.1748 4.82458 55.484 4.58659ZM3.94285 4.15636C4.03098 4.18405 4.12533 4.20907 4.22595 4.23123L6.3771 4.58764C6.68803 4.63925 6.97549 4.69499 7.23943 4.75531L6.82503 4.66778C6.68128 4.63972 6.53263 4.61346 6.3771 4.58764L4.22595 4.23123C4.02515 4.18701 3.84814 4.13086 3.69701 4.06462L3.94285 4.15636ZM58.8513 3.15882C58.8513 3.20515 58.848 3.25011 58.842 3.29379C58.8437 3.28187 58.8464 3.27007 58.8476 3.25794L58.8513 3.15882ZM17.8518 2.76233C17.816 2.73817 17.7809 2.71223 17.7438 2.68957L17.6916 2.66005C17.7462 2.69277 17.7995 2.72709 17.8518 2.76233Z" fill="var(--fill-0, black)"/>
</g>
</svg>
